<?xml version="1.0" encoding="UTF-8"?>
<svg id="Layer_1" xmlns="http://www.w3.org/2000/svg" viewBox="0 0 800 250">
  <defs>
    <style>
      .cls-1, .cls-2, .cls-3, .cls-4, .cls-5, .cls-6 {
        stroke: #42d392;
      }

      .cls-1, .cls-2, .cls-4, .cls-6 {
        fill: none;
      }

      .cls-1, .cls-5 {
        stroke-width: 1.67px;
      }

      .cls-2 {
        stroke-width: 1.65px;
      }

      .cls-3, .cls-6 {
        stroke-width: 2px;
      }

      .cls-7 {
        fill: #2d2d2d;
      }

      .cls-8 {
        fill: #1e1e1e;
      }

      .cls-4 {
        stroke-width: 1.55px;
      }

      .cls-9 {
        fill: #333;
      }

      .cls-10 {
        font-size: 14px;
      }

      .cls-10, .cls-11 {
        fill: #42d392;
      }

      .cls-10, .cls-12 {
        font-family: Arial-BoldMT, Arial;
        font-weight: 700;
      }

      .cls-10, .cls-12, .cls-13 {
        isolation: isolate;
      }

      .cls-12 {
        fill: #fff;
        font-size: 28px;
      }

      .cls-13 {
        fill: #aaa;
        font-family: ArialMT, Arial;
        font-size: 13px;
      }
    </style>
  </defs>
  <rect class="cls-8" width="800" height="250"/>
  <rect class="cls-11" width="20" height="250"/>
  <rect class="cls-7" x="45.91" y="28" width="728.17" height="82.64" rx="41.32" ry="41.32"/>
  <text class="cls-12" transform="translate(155.91 76.42)"><tspan x="0" y="0">Bitpin Exchange MCP Server Tools</tspan></text>
  <g>
    <circle class="cls-11" cx="87.98" cy="69.32" r="41.32"/>
    <g>
      <path class="cls-7" d="M87.99,78.82c2.1-3,4.08-5.79,6-8.6.48-.7,1-.98,1.86-.97,3.75.05,7.49,0,11.24.04.5,0,1.2.19,1.46.54,2.07,2.83,4.05,5.73,6.05,8.61.07.1.06.26.12.55-2.09,0-4.11.06-6.12-.05-.42-.02-.89-.62-1.2-1.06-1.95-2.74-3.86-5.5-5.88-8.38-.32.37-.57.62-.78.91-1.8,2.56-3.56,5.15-5.43,7.66-.35.47-1.11.87-1.7.89-3.79.08-7.59.07-11.38,0-.51,0-1.17-.34-1.49-.74-.99-1.24-1.84-2.59-2.92-4.14,2.33,0,4.35-.04,6.37.04.36.01.77.47,1.03.82.91,1.2,1.76,2.45,2.77,3.87Z"/>
      <path class="cls-7" d="M74.77,69.46c.11-.37.14-.79.35-1.09,1.83-2.65,3.65-5.3,5.56-7.89.32-.44,1.05-.8,1.59-.81,3.79-.07,7.58-.05,11.37-.02.43,0,1.06.07,1.26.35,1.63,2.19,3.17,4.44,4.94,6.95-2.38,0-4.44.04-6.49-.04-.35-.01-.74-.53-1-.89-1.43-1.99-2.83-4.01-4.38-6.21-1.26,1.78-2.41,3.43-3.58,5.07-1.04,1.46-1.81,3.47-3.23,4.22-1.42.75-3.51.24-5.3.28-.38,0-.75.04-1.13.06l.03.02Z"/>
      <path class="cls-7" d="M74.74,69.44c-.62.75-1.28,1.47-1.85,2.26-1.52,2.12-2.95,4.3-4.52,6.37-.35.47-1.11.85-1.71.88-1.78.12-3.57.04-5.64.04.4-.64.64-1.07.92-1.48,1.71-2.45,3.39-4.92,5.17-7.31.35-.47,1.11-.89,1.69-.9,1.98-.06,3.96.08,5.95.14,0,0-.02-.01-.02-.01Z"/>
      <path class="cls-7" d="M72.9,66.94c-2.41,0-4.47.01-6.53-.02-.22,0-.51-.26-.66-.47-1.53-2.16-3.04-4.33-4.76-6.8,2.39,0,4.48,0,6.57.01.16,0,.36.15.46.29,1.58,2.22,3.14,4.46,4.92,6.99Z"/>
      <path class="cls-7" d="M115,59.62c-1.18,1.7-2.13,3.1-3.14,4.46-.19.25-.63.43-.95.43-1.94.04-3.87.02-6.18.02,1.21-1.71,2.24-3.2,3.32-4.65.13-.18.5-.25.76-.25,1.93-.02,3.87-.01,6.19-.01Z"/>
    </g>
  </g>
  <g>
    <rect class="cls-9" x="46.66" y="138.1" width="61.49" height="61.49" rx="30.74" ry="30.74"/>
    <g>
      <path class="cls-4" d="M61.89,157.21h31.02v23.27h-31.02v-23.27Z"/>
      <circle class="cls-11" cx="84.85" cy="168.84" r="3.88"/>
    </g>
  </g>
  <text class="cls-13" transform="translate(46.44 229.45)"><tspan x="0" y="0">Powerful cryptocurrency trading tools for the Bitpin Exchange API</tspan></text>
  <g>
    <rect class="cls-9" x="125.92" y="138.1" width="61.49" height="61.49" rx="30.74" ry="30.74"/>
    <g>
      <path class="cls-1" d="M144.16,156.34l8.33,12.5-8.33,12.5M169.16,156.34l-8.33,12.5,8.33,12.5"/>
      <path class="cls-5" d="M156.66,152.17v33.33"/>
    </g>
  </g>
  <g>
    <rect class="cls-9" x="205.17" y="138.1" width="61.49" height="61.49" rx="30.74" ry="30.74"/>
    <g>
      <path class="cls-2" d="M219.4,177.92l8.26-8.26,8.26,4.13,8.26-16.51,8.26,8.26"/>
      <circle class="cls-11" cx="219.4" cy="177.92" r="2.48"/>
      <circle class="cls-11" cx="252.43" cy="165.54" r="2.48"/>
    </g>
  </g>
  <g>
    <rect class="cls-9" x="284.43" y="138.1" width="61.49" height="61.49" rx="30.74" ry="30.74"/>
    <path class="cls-3" d="M300.17,158.84h10M300.17,168.84h30M300.17,178.84h20"/>
  </g>
  <g>
    <rect class="cls-9" x="363.68" y="138.1" width="61.49" height="61.49" rx="30.74" ry="30.74"/>
    <g>
      <circle class="cls-6" cx="394.43" cy="168.84" r="15"/>
      <text class="cls-10" transform="translate(389.43 173.84)"><tspan x="0" y="0">₿</tspan></text>
    </g>
  </g>
</svg>